<svg width="1980" height="150" viewBox="0 0 1980 150" fill="none" xmlns="http://www.w3.org/2000/svg">
<rect width="1980" height="150" fill="#7FCAC5"/>
<path d="M649.557 108H640.737C638.833 108 637.573 107.692 636.957 107.076C636.397 106.46 636.117 105.172 636.117 103.212V50.628C636.117 49.62 636.397 48.808 636.957 48.192C637.517 47.576 638.245 47.268 639.141 47.268H649.557V108ZM652.917 47.268H663.585C668.905 47.268 672.433 48.528 674.169 51.048C675.961 53.512 676.857 58.496 676.857 66C676.857 70.984 676.297 74.876 675.177 77.676C674.113 80.476 672.685 82.352 670.893 83.304C669.101 84.2 666.665 84.648 663.585 84.648H652.917V76.668H659.133C660.589 76.668 661.513 76.472 661.905 76.08C662.353 75.688 662.577 75.072 662.577 74.232V57.768C662.577 56.872 662.353 56.228 661.905 55.836C661.513 55.444 660.589 55.248 659.133 55.248H652.917V47.268ZM701.878 66H711.958C712.294 66 712.462 66.196 712.462 66.588V71.712C712.462 72.104 712.238 72.3 711.79 72.3H708.01C706.666 72.3 705.882 72.552 705.658 73.056C705.434 73.784 705.322 74.596 705.322 75.492V101.532C705.322 103.436 704.678 105.004 703.39 106.236C702.158 107.412 700.31 108 697.846 108H692.722V75.324C692.722 72.02 693.45 69.64 694.906 68.184C696.418 66.728 698.742 66 701.878 66ZM742.246 66H750.394C752.522 66 754.258 66.112 755.602 66.336C756.946 66.504 758.122 66.924 759.13 67.596C760.138 68.268 760.894 69.024 761.398 69.864C761.902 70.648 762.294 71.936 762.574 73.728C763.022 76.248 763.246 79.776 763.246 84.312C763.246 88.848 763.218 91.928 763.162 93.552C763.106 95.12 762.994 96.8 762.826 98.592C762.714 100.384 762.462 101.7 762.07 102.54C761.734 103.38 761.258 104.248 760.642 105.144C760.082 105.984 759.326 106.572 758.374 106.908C756.302 107.636 753.642 108 750.394 108H750.226V76.332C750.226 76.22 750.226 75.884 750.226 75.324C750.226 74.764 750.198 74.288 750.142 73.896C749.862 72.832 748.742 72.3 746.782 72.3H742.246V66ZM739.726 66V97.668C739.726 97.78 739.726 98.116 739.726 98.676C739.726 99.236 739.782 99.712 739.894 100.104C740.118 101.168 741.21 101.7 743.17 101.7H747.706V108H739.558C737.43 108 735.694 107.916 734.35 107.748C733.006 107.524 731.83 107.076 730.822 106.404C729.814 105.732 729.058 105.004 728.554 104.22C728.05 103.38 727.63 102.064 727.294 100.272C726.902 97.752 726.706 94.224 726.706 89.688C726.706 85.152 726.734 82.1 726.79 80.532C726.846 78.908 726.93 77.2 727.042 75.408C727.21 73.616 727.462 72.3 727.798 71.46C728.19 70.62 728.666 69.78 729.226 68.94C729.842 68.044 730.626 67.428 731.578 67.092C733.65 66.364 736.31 66 739.558 66H739.726ZM780.811 66.084H785.935C788.399 66.084 790.247 66.7 791.479 67.932C792.767 69.108 793.411 70.648 793.411 72.552V117.324C793.411 120.628 792.655 123.008 791.143 124.464C789.687 125.92 787.391 126.648 784.255 126.648H775.855C775.519 126.648 775.351 126.452 775.351 126.06V120.936C775.351 120.544 775.575 120.348 776.023 120.348H778.123C779.467 120.348 780.251 120.096 780.475 119.592C780.699 118.864 780.811 118.052 780.811 117.156V66.084ZM781.651 48.192C782.267 47.576 784.059 47.268 787.027 47.268C789.995 47.268 791.787 47.576 792.403 48.192C793.019 48.752 793.327 50.432 793.327 53.232C793.327 56.032 792.991 57.74 792.319 58.356C791.703 58.972 789.939 59.28 787.027 59.28C784.115 59.28 782.323 58.972 781.651 58.356C781.035 57.74 780.727 56.032 780.727 53.232C780.727 50.432 781.035 48.752 781.651 48.192ZM823.874 108H823.706C818.162 108 814.746 107.048 813.458 105.144C812.842 104.248 812.338 103.38 811.946 102.54C811.61 101.7 811.386 100.384 811.274 98.592C810.994 95.344 810.854 91.732 810.854 87.756C810.854 83.78 810.882 80.924 810.938 79.188C810.994 77.396 811.162 75.604 811.442 73.812C811.778 71.964 812.198 70.648 812.702 69.864C813.206 69.024 813.962 68.268 814.97 67.596C815.978 66.924 817.154 66.504 818.498 66.336C819.842 66.112 821.578 66 823.706 66H823.874V108ZM846.218 94.728V99.012C846.218 105.004 843.166 108 837.062 108H826.478V101.7H831.014C832.19 101.7 832.918 101.532 833.198 101.196C833.478 100.804 833.618 100.132 833.618 99.18V96.492C833.618 95.652 833.702 95.176 833.87 95.064C834.094 94.952 834.234 94.896 834.29 94.896C834.346 94.84 834.486 94.812 834.71 94.812C834.99 94.756 835.186 94.728 835.298 94.728C838.938 94.728 842.578 94.728 846.218 94.728ZM826.478 66H836.222C840.086 66 842.718 66.756 844.118 68.268C845.518 69.78 846.218 72.02 846.218 74.988V82.38C846.218 87.42 843.474 89.94 837.986 89.94H825.638V83.64H830.174C831.518 83.64 832.414 83.472 832.862 83.136C833.366 82.8 833.618 82.156 833.618 81.204V74.82C833.618 73.868 833.478 73.224 833.198 72.888C832.918 72.496 832.19 72.3 831.014 72.3H826.478V66ZM875.914 108H875.746C870.202 108 866.786 107.048 865.498 105.144C864.882 104.248 864.378 103.38 863.986 102.54C863.65 101.7 863.426 100.384 863.314 98.592C863.034 95.344 862.894 91.732 862.894 87.756C862.894 83.78 862.922 80.924 862.978 79.188C863.034 77.396 863.202 75.604 863.482 73.812C863.818 71.964 864.238 70.648 864.742 69.864C865.246 69.024 866.002 68.268 867.01 67.596C868.018 66.924 869.194 66.504 870.538 66.336C871.882 66.112 873.618 66 875.746 66H875.914V108ZM885.658 94.728C889.41 94.728 892.266 94.728 894.226 94.728C896.186 94.728 897.194 94.756 897.25 94.812C897.306 94.812 897.39 94.84 897.502 94.896C897.67 94.896 897.782 94.924 897.838 94.98C897.894 95.036 897.95 95.12 898.006 95.232C898.062 95.288 898.09 95.4 898.09 95.568C898.202 95.96 898.258 96.268 898.258 96.492V99.012C898.258 105.004 895.206 108 889.102 108H878.518V101.7H883.054C884.23 101.7 884.958 101.532 885.238 101.196C885.518 100.804 885.658 100.132 885.658 99.18V94.728ZM878.518 66H889.102C895.206 66 898.258 68.996 898.258 74.988V80.7C894.506 80.7 891.65 80.7 889.69 80.7C887.73 80.7 886.722 80.7 886.666 80.7C886.61 80.644 886.498 80.616 886.33 80.616C886.218 80.56 886.134 80.504 886.078 80.448C886.022 80.392 885.966 80.336 885.91 80.28C885.854 80.168 885.826 80.056 885.826 79.944C885.714 79.496 885.658 79.16 885.658 78.936V74.82C885.658 73.868 885.518 73.224 885.238 72.888C884.958 72.496 884.23 72.3 883.054 72.3H878.518V66ZM936.449 107.328C936.449 107.664 936.281 107.888 935.945 108H929.561C925.473 108 922.505 107.188 920.657 105.564C918.809 103.94 917.885 101.084 917.885 96.996V72.468H913.601C912.201 72.468 911.501 71.628 911.501 69.948V66H917.885V47.268H923.009C925.473 47.268 927.321 47.884 928.553 49.116C929.841 50.348 930.485 51.916 930.485 53.82V98.508C930.485 100.58 931.661 101.616 934.013 101.616H935.777C936.225 101.616 936.449 101.812 936.449 102.204V107.328ZM939.053 66V69.948C939.053 71.628 938.353 72.468 936.953 72.468H932.585V66H939.053ZM984.294 86.748H952.962V77.508H984.294V86.748ZM1017.41 47.352V71.46C1017.41 72.356 1017.61 73 1018 73.392C1018.45 73.784 1019.4 73.98 1020.86 73.98H1027.07V81.96H1016.4C1013.21 81.96 1010.64 81.624 1008.68 80.952C1006.77 80.28 1005.34 79.104 1004.39 77.424C1003.5 75.688 1002.91 73.84 1002.63 71.88C1002.4 69.92 1002.29 67.288 1002.29 63.984C1002.29 60.624 1002.4 58.076 1002.63 56.34C1002.91 54.604 1003.5 52.98 1004.39 51.468C1005.34 49.956 1006.77 48.892 1008.68 48.276C1010.64 47.66 1013.21 47.352 1016.4 47.352H1017.41ZM1030.43 73.98H1031.44C1033.85 73.98 1035.7 74.036 1036.98 74.148C1038.33 74.204 1039.62 74.456 1040.85 74.904C1042.08 75.296 1042.92 75.772 1043.37 76.332C1043.87 76.892 1044.32 77.872 1044.71 79.272C1045.16 80.616 1045.41 82.072 1045.47 83.64C1045.52 85.208 1045.55 87.448 1045.55 90.36C1045.55 93.272 1045.52 95.596 1045.47 97.332C1045.41 99.012 1045.16 100.636 1044.71 102.204C1044.32 103.716 1043.87 104.78 1043.37 105.396C1042.92 106.012 1042.08 106.572 1040.85 107.076C1039.62 107.524 1038.33 107.804 1036.98 107.916C1035.7 107.972 1033.85 108 1031.44 108H1030.43V73.98ZM1003.47 89.268H1014.05C1014.84 89.268 1015.31 89.38 1015.48 89.604C1015.65 89.828 1015.73 90.304 1015.73 91.032V97.584C1015.73 98.48 1015.84 99.124 1016.07 99.516C1016.35 99.852 1016.99 100.02 1018 100.02H1027.07V108H1014.72C1010.64 108 1007.53 107.3 1005.4 105.9C1003.33 104.5 1002.29 102.064 1002.29 98.592V91.032C1002.29 89.856 1002.68 89.268 1003.47 89.268ZM1020.77 47.268H1031.44C1035.53 47.268 1038.61 47.968 1040.68 49.368C1042.81 50.768 1043.87 53.204 1043.87 56.676V64.236C1043.87 65.412 1043.48 66 1042.7 66H1032.11C1031.33 66 1030.85 65.888 1030.68 65.664C1030.52 65.44 1030.43 64.964 1030.43 64.236V57.684C1030.43 56.788 1030.29 56.172 1030.01 55.836C1029.79 55.444 1029.17 55.248 1028.16 55.248H1020.77V47.268ZM1063.11 66H1072.69C1073.58 66 1074.31 66.308 1074.87 66.924C1075.43 67.54 1075.71 68.352 1075.71 69.36V99.18C1075.71 100.076 1075.91 100.72 1076.3 101.112C1076.75 101.504 1077.7 101.7 1079.15 101.7H1083.69V108H1072.27C1066.16 108 1063.11 105.004 1063.11 99.012V66ZM1076.55 113.376V117.828C1076.55 118.78 1076.69 119.424 1076.97 119.76C1077.25 120.152 1077.98 120.348 1079.15 120.348H1083.69V126.648H1073.11C1067 126.648 1063.95 123.652 1063.95 117.66V115.14C1063.95 114.3 1064.03 113.824 1064.2 113.712C1064.43 113.6 1064.57 113.516 1064.62 113.46C1064.68 113.46 1064.82 113.432 1065.04 113.376C1065.32 113.376 1065.52 113.376 1065.63 113.376C1069.27 113.376 1072.91 113.376 1076.55 113.376ZM1086.21 66H1091.33C1093.8 66 1095.65 66.616 1096.88 67.848C1098.17 69.024 1098.81 70.564 1098.81 72.468V120.264C1098.81 122.168 1098.17 123.708 1096.88 124.884C1095.65 126.116 1093.8 126.732 1091.33 126.732H1086.21V66ZM1131.58 66H1143.34C1149.44 66 1152.49 68.996 1152.49 74.988V108H1142.92C1142.02 108 1141.29 107.692 1140.73 107.076C1140.17 106.46 1139.89 105.648 1139.89 104.64V74.82C1139.89 73.924 1139.67 73.28 1139.22 72.888C1138.83 72.496 1137.9 72.3 1136.45 72.3H1131.58V66ZM1116.88 66H1122C1124.46 66 1126.31 66.616 1127.54 67.848C1128.83 69.024 1129.48 70.564 1129.48 72.468V108H1119.9C1119 108 1118.28 107.692 1117.72 107.076C1117.16 106.46 1116.88 105.648 1116.88 104.64V66ZM1182.91 108H1182.74C1177.2 108 1173.78 107.048 1172.49 105.144C1171.88 104.248 1171.37 103.38 1170.98 102.54C1170.64 101.7 1170.42 100.384 1170.31 98.592C1170.03 95.344 1169.89 91.732 1169.89 87.756C1169.89 83.78 1169.92 80.924 1169.97 79.188C1170.03 77.396 1170.2 75.604 1170.48 73.812C1170.81 71.964 1171.23 70.648 1171.74 69.864C1172.24 69.024 1173 68.268 1174 67.596C1175.01 66.924 1176.19 66.504 1177.53 66.336C1178.88 66.112 1180.61 66 1182.74 66H1182.91V108ZM1205.25 94.728V99.012C1205.25 105.004 1202.2 108 1196.1 108H1185.51V101.7H1190.05C1191.22 101.7 1191.95 101.532 1192.23 101.196C1192.51 100.804 1192.65 100.132 1192.65 99.18V96.492C1192.65 95.652 1192.74 95.176 1192.9 95.064C1193.13 94.952 1193.27 94.896 1193.32 94.896C1193.38 94.84 1193.52 94.812 1193.74 94.812C1194.02 94.756 1194.22 94.728 1194.33 94.728C1197.97 94.728 1201.61 94.728 1205.25 94.728ZM1185.51 66H1195.26C1199.12 66 1201.75 66.756 1203.15 68.268C1204.55 69.78 1205.25 72.02 1205.25 74.988V82.38C1205.25 87.42 1202.51 89.94 1197.02 89.94H1184.67V83.64H1189.21C1190.55 83.64 1191.45 83.472 1191.9 83.136C1192.4 82.8 1192.65 82.156 1192.65 81.204V74.82C1192.65 73.868 1192.51 73.224 1192.23 72.888C1191.95 72.496 1191.22 72.3 1190.05 72.3H1185.51V66ZM1231.5 66H1241.58C1241.92 66 1242.09 66.196 1242.09 66.588V71.712C1242.09 72.104 1241.86 72.3 1241.42 72.3H1237.64C1236.29 72.3 1235.51 72.552 1235.28 73.056C1235.06 73.784 1234.95 74.596 1234.95 75.492V101.532C1234.95 103.436 1234.3 105.004 1233.02 106.236C1231.78 107.412 1229.94 108 1227.47 108H1222.35V75.324C1222.35 72.02 1223.08 69.64 1224.53 68.184C1226.04 66.728 1228.37 66 1231.5 66ZM1277.33 72.3H1272.8C1271.34 72.3 1270.39 72.496 1269.94 72.888C1269.55 73.28 1269.35 73.924 1269.35 74.82V99.264C1269.35 100.104 1269.55 100.72 1269.94 101.112C1270.39 101.504 1271.34 101.7 1272.8 101.7H1277.33V108H1269.18C1267.06 108 1265.32 107.916 1263.98 107.748C1262.63 107.524 1261.46 107.076 1260.45 106.404C1259.44 105.732 1258.68 105.004 1258.18 104.22C1257.68 103.38 1257.26 102.064 1256.92 100.272C1256.53 97.752 1256.33 94.224 1256.33 89.688C1256.33 85.152 1256.36 82.1 1256.42 80.532C1256.47 78.908 1256.56 77.2 1256.67 75.408C1256.84 73.616 1257.09 72.3 1257.42 71.46C1257.82 70.62 1258.29 69.78 1258.85 68.94C1259.47 68.044 1260.25 67.428 1261.2 67.092C1263.28 66.364 1265.94 66 1269.18 66H1277.33V72.3ZM1270.19 113.376V117.828C1270.19 118.78 1270.33 119.424 1270.61 119.76C1270.89 120.152 1271.62 120.348 1272.8 120.348H1277.33V126.648H1266.75C1260.64 126.648 1257.59 123.652 1257.59 117.66V115.14C1257.59 114.3 1257.68 113.824 1257.84 113.712C1258.07 113.6 1258.21 113.516 1258.26 113.46C1258.32 113.46 1258.46 113.432 1258.68 113.376C1258.96 113.376 1259.16 113.376 1259.27 113.376C1262.91 113.376 1266.55 113.376 1270.19 113.376ZM1279.85 66H1284.98C1287.44 66 1289.29 66.616 1290.52 67.848C1291.81 69.024 1292.45 70.564 1292.45 72.468V120.264C1292.45 122.168 1291.81 123.708 1290.52 124.884C1289.29 126.116 1287.44 126.732 1284.98 126.732H1279.85V66ZM1310.35 66H1319.93C1320.82 66 1321.55 66.308 1322.11 66.924C1322.67 67.54 1322.95 68.352 1322.95 69.36V99.18C1322.95 100.076 1323.15 100.72 1323.54 101.112C1323.99 101.504 1324.94 101.7 1326.4 101.7H1330.93V108H1319.51C1313.4 108 1310.35 105.004 1310.35 99.012V66ZM1323.79 113.376V117.828C1323.79 118.78 1323.93 119.424 1324.21 119.76C1324.49 120.152 1325.22 120.348 1326.4 120.348H1330.93V126.648H1320.35C1314.24 126.648 1311.19 123.652 1311.19 117.66V115.14C1311.19 114.3 1311.28 113.824 1311.44 113.712C1311.67 113.6 1311.81 113.516 1311.86 113.46C1311.92 113.46 1312.06 113.432 1312.28 113.376C1312.56 113.376 1312.76 113.376 1312.87 113.376C1316.51 113.376 1320.15 113.376 1323.79 113.376ZM1333.45 66H1338.58C1341.04 66 1342.89 66.616 1344.12 67.848C1345.41 69.024 1346.05 70.564 1346.05 72.468V120.264C1346.05 122.168 1345.41 123.708 1344.12 124.884C1342.89 126.116 1341.04 126.732 1338.58 126.732H1333.45V66Z" fill="white"/>
</svg>
